<svg xmlns="http://www.w3.org/2000/svg" viewBox="0 0 141.73 141.73">
	<defs>
		<style>.cls-1{fill:none;stroke:currentColor;stroke-miterlimit:10;}</style>
	</defs>
	<title>Academicons</title>
	<path class="cls-1" d="M82.42,82.9a9,9,0,0,0,0-17.92"/>
	<path class="cls-1" d="M81,83a12.85,12.85,0,0,1,1.4-.08A11.73,11.73,0,0,1,94.14,94.63H86.33"/>
	<path class="cls-1" d="M59,82.9A9,9,0,1,1,59,65"/>
	<path class="cls-1" d="M60.38,83A13,13,0,0,0,59,82.9,11.73,11.73,0,0,0,47.25,94.63h7.82"/>
	<circle class="cls-1" cx="70.69" cy="67.05" r="11.95"/>
	<path class="cls-1" d="M55.06,94.63a15.64,15.64,0,1,1,31.27,0Z"/>
	<polyline class="cls-1" points="23.66 49.22 23.66 130.01 117.89 130.01 117.89 49.22"/>
	<polyline class="cls-1" points="129.71 58.84 70.93 11.62 11.85 59.12"/>
</svg>