<svg xmlns="http://www.w3.org/2000/svg" viewBox="0 0 141.73 141.73">
	<defs>
		<style>.cls-1,.cls-2{fill:none;stroke:currentColor;}.cls-1{stroke-linecap:round;stroke-linejoin:round;}.cls-2{stroke-miterlimit:10;}</style>
	</defs>
	<title>Academicons</title>
	<path class="cls-1" d="M90.77,82.92a19.68,19.68,0,0,0,3.32-12.19,23.25,23.25,0,1,0-46.49,0A22.21,22.21,0,0,0,51.21,83"/>
	<path class="cls-2" d="M141.61,94.08a222.05,222.05,0,0,0-70.77-12,222,222,0,0,0-70.76,12"/>
	<line class="cls-1" x1="70.98" y1="23.57" x2="70.98" y2="0.19"/>
	<line class="cls-1" x1="47.28" y1="29.91" x2="35.58" y2="9.67"/>
	<line class="cls-1" x1="30.05" y1="47.27" x2="9.67" y2="35.58"/>
	<line class="cls-1" x1="132.28" y1="35.58" x2="112.05" y2="47.27"/>
	<line class="cls-1" x1="106.37" y1="9.67" x2="94.56" y2="30.03"/>
	<line class="cls-1" x1="141.77" y1="70.98" x2="118.26" y2="70.98"/>
	<line class="cls-1" x1="23.58" y1="70.98" x2="0.19" y2="70.98"/>
</svg>