<svg xmlns="http://www.w3.org/2000/svg" viewBox="0 0 141.73 141.73">
	<defs>
		<style>.cls-1{fill:none;stroke:currentColor;stroke-linecap:round;stroke-linejoin:round;}</style>
	</defs>
	<title>Academicons</title>
	<path class="cls-1" d="M108.33,79.84h0A59.85,59.85,0,0,1,99,90.51,56.39,56.39,0,0,0,141.33,35.9"/>
	<path class="cls-1" d="M85,92.26a28.16,28.16,0,1,1,23.36-12.42"/>
	<path class="cls-1" d="M108.33,79.84A28.14,28.14,0,0,1,85,92.26a56.7,56.7,0,0,0,14-1.75A59.85,59.85,0,0,0,108.33,79.84Z"/>
	<path class="cls-1" d="M108.33,79.84Z"/>
	<path class="cls-1" d="M85,35.92a28.17,28.17,0,1,0,23.36,43.92h0A28.17,28.17,0,0,0,85,35.92Z"/>
	<path class="cls-1" d="M.51,35.9a59.53,59.53,0,0,0-.83,10v.34A59.52,59.52,0,0,0,99,90.51a56.7,56.7,0,0,1-14,1.75"/>
</svg>