<svg xmlns="http://www.w3.org/2000/svg" viewBox="0 0 141.73 141.73">
	<defs>
		<style>.cls-1{fill:none;stroke:currentColor;stroke-miterlimit:10;}</style>
	</defs>
	<title>Academicons</title>
	<polyline class="cls-1" points="23.82 129.79 23.82 23.63 118.12 23.63 118.12 129.79"/>
	<line class="cls-1" x1="23.93" y1="82.76" x2="117.8" y2="82.76"/>
	<line class="cls-1" x1="23.93" y1="59.28" x2="117.8" y2="59.28"/>
	<line class="cls-1" x1="23.93" y1="71.02" x2="117.8" y2="71.02"/>
	<line class="cls-1" x1="23.93" y1="47.54" x2="117.8" y2="47.54"/>
	<line class="cls-1" x1="23.93" y1="35.8" x2="117.8" y2="35.8"/>
	<line class="cls-1" x1="47.12" y1="23.49" x2="47.12" y2="82.59"/>
	<line class="cls-1" x1="59" y1="23.49" x2="59" y2="82.59"/>
	<line class="cls-1" x1="35.25" y1="23.49" x2="35.25" y2="82.59"/>
	<line class="cls-1" x1="70.87" y1="23.49" x2="70.87" y2="82.59"/>
	<line class="cls-1" x1="94.61" y1="23.49" x2="94.61" y2="82.59"/>
	<line class="cls-1" x1="106.48" y1="23.49" x2="106.48" y2="82.59"/>
	<line class="cls-1" x1="82.74" y1="23.49" x2="82.74" y2="82.59"/>
	<line class="cls-1" x1="0.13" y1="129.79" x2="141.67" y2="129.79"/>
	<circle class="cls-1" cx="94.44" cy="117.88" r="11.63"/>
</svg>