<svg xmlns="http://www.w3.org/2000/svg" viewBox="0 0 141.73 141.73">
	<defs>
		<style>.cls-1{fill:none;stroke:currentColor;stroke-miterlimit:10;}</style>
	</defs>
	<title>Academicons</title>
	<path class="cls-1" d="M12,106.1s.12,12.12,11.36,12.12c12,0,12.18-12.12,12.18-12.12s0,12,11.7,12,11.86-11.92,11.86-11.92-.08,11.92,11.6,11.92,12-11.92,12-11.92,0,11.92,11.8,11.92,11.73-11.87,11.73-11.87.25,11.69,12,11.69,11.53-11.64,11.53-11.64"/>
	<path class="cls-1" d="M12,82.1s.12,12.12,11.36,12.12c12,0,12.18-12.12,12.18-12.12s0,12,11.7,12S59.07,82.19,59.07,82.19,59,94.11,70.67,94.11s12-11.92,12-11.92,0,11.92,11.8,11.92,11.73-11.87,11.73-11.87.25,11.69,12,11.69,11.53-11.64,11.53-11.64"/>
	<path class="cls-1" d="M12,59.1s.12,12.12,11.36,12.12c12,0,12.18-12.12,12.18-12.12s0,12,11.7,12S59.07,59.19,59.07,59.19,59,71.11,70.67,71.11s12-11.92,12-11.92,0,11.92,11.8,11.92,11.73-11.87,11.73-11.87.25,11.69,12,11.69,11.53-11.64,11.53-11.64"/>
	<path class="cls-1" d="M12,35.1s.12,12.12,11.36,12.12c12,0,12.18-12.12,12.18-12.12s0,12,11.7,12S59.07,35.19,59.07,35.19,59,47.11,70.67,47.11s12-11.92,12-11.92,0,11.92,11.8,11.92,11.73-11.87,11.73-11.87.25,11.69,12,11.69,11.53-11.64,11.53-11.64"/>
</svg>