<svg xmlns="http://www.w3.org/2000/svg" viewBox="0 0 141.73 141.73">
	<defs>
		<style>.cls-1{fill:none;stroke:currentColor;stroke-miterlimit:10;}</style>
	</defs>
	<title>Academicons</title>
	<path class="cls-1" d="M94.47,119S88,107.16,71.22,107.16c-17.75,0-24,11.85-24,11.85"/>
	<path class="cls-1" d="M94.47,84S88,72.16,71.22,72.16c-17.75,0-24,11.85-24,11.85"/>
	<path class="cls-1" d="M94.47,48S88,36.16,71.22,36.16c-17.75,0-24,11.85-24,11.85"/>
	<path class="cls-1" d="M47.47,24.16S41,36,24.22,36C6.47,36,.22,24.16.22,24.16"/>
	<path class="cls-1" d="M47.47,59.16S41,71,24.22,71C6.47,71,.22,59.16.22,59.16"/>
	<path class="cls-1" d="M47.47,95.16S41,107,24.22,107c-17.75,0-24-11.85-24-11.85"/>
	<path class="cls-1" d="M141.47,24.16S135,36,118.22,36c-17.75,0-24-11.85-24-11.85"/>
	<path class="cls-1" d="M141.47,59.16S135,71,118.22,71c-17.75,0-24-11.85-24-11.85"/>
	<path class="cls-1" d="M141.47,95.16S135,107,118.22,107c-17.75,0-24-11.85-24-11.85"/>
</svg>