<svg xmlns="http://www.w3.org/2000/svg" viewBox="0 0 32 32" width="32" height="32">
	<path d="M31.52 22.83l-1.75-1.93-.12-2.59a1 1 0 00-1-1l-2.59-.12-1.93-1.75a1 1 0 00-1.34 0l-1.89 1.79-2.59.12a1 1 0 00-1 1l-.12 2.59-1.75 1.93a1 1 0 000 1.34l1.75 1.93.12 2.59a1 1 0 001 1l2.59.12 1.93 1.75a1 1 0 001.34 0l1.93-1.75 2.59-.12a1 1 0 001-1l.12-2.59 1.75-1.93a1 1 0 00-.04-1.38zm-7.18 4.48l-.84.77-.84-.77a2 2 0 00-1.26-.52l-1.13-.06-.06-1.13a2 2 0 00-.52-1.26l-.77-.84.77-.84a2 2 0 00.52-1.26l.06-1.14 1.13-.05a2 2 0 001.26-.52l.84-.77.84.77a2 2 0 001.26.52l1.13.05.06 1.14a2 2 0 00.52 1.26l.77.84-.77.84a2 2 0 00-.52 1.26l-.06 1.13-1.13.06a2 2 0 00-1.26.52z"/>
	<rect height="3" rx="1" width="12" x="10" y="5"/>
	<rect height="3" rx="1" width="12" x="10" y="10"/>
	<rect height="3" rx="1" width="6" x="10" y="15"/>
	<path d="M15 29H8V3h16v9a1 1 0 001 1h1a1 1 0 001-1V1a1 1 0 00-1-1H6a1 1 0 00-1 1v30a1 1 0 001 1h9a1 1 0 001-1v-1a1 1 0 00-1-1z"/>
</svg>