<svg xmlns="http://www.w3.org/2000/svg" viewBox="0 0 32 32" width="32" height="32">
	<path d="M18.06 17.41A2.46 2.46 0 0018.5 16a2.5 2.5 0 00-5 0 2.46 2.46 0 00.44 1.41L9.6 30.3a1 1 0 00.63 1.26l.95.32a.86.86 0 00.32.05 1 1 0 00.44-.1 1 1 0 00.51-.58L16 20.69l3.55 10.56a1 1 0 00.51.58 1 1 0 00.44.1.86.86 0 00.32-.05l.95-.32a1 1 0 00.63-1.26z"/>
	<path d="M30.68 12.9a1 1 0 00-1.15-.81l-1.53.28a12.43 12.43 0 00-2.84-4.9l1-1.23A1 1 0 0026 4.83l-.76-.64a1 1 0 00-.71-.19 1 1 0 00-.68.35l-1 1.22A12.38 12.38 0 0017.5 3.6V2a1 1 0 00-1-1h-1a1 1 0 00-1 1v1.6a12.38 12.38 0 00-5.33 1.93l-1-1.22a1 1 0 00-.7-.31 1 1 0 00-.73.23l-.74.6a1 1 0 00-.13 1.41l1 1.23A12.43 12.43 0 004 12.37l-1.57-.28a1 1 0 00-1.15.81l-.18 1a.93.93 0 00.17.74 1 1 0 00.64.42l1.59.28a12.58 12.58 0 001 5.57l-1.38.8a1 1 0 00-.37 1.37l.5.86a1 1 0 001.37.37L6 23.5a11.89 11.89 0 001.14 1.34 1 1 0 00.7.29 1 1 0 00.71-.29l.71-.71a1 1 0 000-1.41 7.29 7.29 0 01-.63-.72l1.19-.69a1 1 0 00.37-1.37l-.5-.86a1 1 0 00-1.37-.37l-1.19.69a9.58 9.58 0 01-.62-3.54l1.35.24H8a1 1 0 001-.82l.17-1a1 1 0 00-.81-1.16L7 12.9a9.47 9.47 0 011.8-3.11l.88 1.05a1 1 0 00.68.35h.08a1 1 0 00.65-.23l.76-.64A1 1 0 0012 8.91l-.88-1a9.45 9.45 0 013.38-1.28V8a1 1 0 001 1h1a1 1 0 001-1V6.63a9.45 9.45 0 013.37 1.23l-.88 1a1 1 0 00.13 1.41l.76.64a1 1 0 00.65.23h.08a1 1 0 00.68-.35l.88-1.05A9.47 9.47 0 0125 12.9l-1.35.23a1 1 0 00-.81 1.16l.17 1a1 1 0 001 .82h.18l1.35-.24a9.58 9.58 0 01-.62 3.54l-1.19-.69a1 1 0 00-1.37.37l-.5.86a1 1 0 00.37 1.37l1.19.69c-.2.25-.42.49-.65.73a1 1 0 00-.31.67 1 1 0 00.29.74l.71.7a1 1 0 00.71.29 1 1 0 00.71-.29A11.7 11.7 0 0026 23.5l1.39.8a1 1 0 001.37-.37l.5-.86a1 1 0 00-.37-1.37l-1.38-.8a12.58 12.58 0 001-5.57l1.59-.28a1 1 0 00.64-.42.93.93 0 00.17-.74z"/>
</svg>