<svg xmlns="http://www.w3.org/2000/svg" viewBox="0 0 32 32" width="32" height="32">
	<path d="M15.33 4a1 1 0 00-1.07.17L6.62 11H2a1 1 0 00-1 1v8a1 1 0 00.3.71A1.11 1.11 0 002 21h4.61l7.72 6.83A1 1 0 0015 28a1 1 0 00.41-.08A1 1 0 0016 27l-.07-22a1 1 0 00-.6-1zm10.79 12l3.94-3.94a1 1 0 000-1.41l-.71-.71a1 1 0 00-1.41 0L24 13.88l-3.94-3.94a1 1 0 00-1.41 0l-.71.71a1 1 0 000 1.41L21.88 16l-3.94 3.94a1 1 0 000 1.41l.71.71a1 1 0 00.7.29 1 1 0 00.71-.29L24 18.12l3.94 3.94a1 1 0 00.71.29 1 1 0 00.7-.29l.71-.71a1 1 0 000-1.41z"/>
</svg>