<svg xmlns="http://www.w3.org/2000/svg" viewBox="0 0 32 32" width="32" height="32">
	<path d="M15.33 4a1 1 0 00-1.07.17L6.62 11H2a1 1 0 00-1 1v8a1 1 0 00.3.71A1.18 1.18 0 002 21h4.61l7.72 6.83A1 1 0 0015 28a1 1 0 00.41-.08A1 1 0 0016 27l-.07-22a1 1 0 00-.6-1zM31 16a14.46 14.46 0 00-7.54-12.69 1.49 1.49 0 00-.14-.12l-.59-.3a1 1 0 00-1.35.42l-.46.89a1 1 0 00-.07.76 1.06 1.06 0 00.49.59l.25.13a1.07 1.07 0 00.21.13 11.51 11.51 0 010 20.42l-.38.19a1.06 1.06 0 00-.49.59 1 1 0 00.07.76l.09.17a1.36 1.36 0 00.11.28c0 .07.09.13.13.19l.13.25a1 1 0 00.89.54 1 1 0 00.46-.12l.59-.3h.06A14.45 14.45 0 0031 16z"/>
	<path d="M22 22.36a1.06 1.06 0 00.27-.29A8 8 0 0022 9.78v-.1l-.54-.39a1 1 0 00-.75-.17 1 1 0 00-.65.4l-.58.81a1 1 0 00-.18.75 1 1 0 00.4.65l.3.27h.06a5 5 0 010 7.92 1.61 1.61 0 00-.23.22l-.2.14a1 1 0 00-.22 1.39l.58.82a1 1 0 00.65.4h.16a1 1 0 00.59-.19z"/>
</svg>