<svg xmlns="http://www.w3.org/2000/svg" viewBox="0 0 32 32" width="32" height="32">
	<path d="M20.44 5.06a3.55 3.55 0 00.06-.56 4.5 4.5 0 00-9 0 3.55 3.55 0 00.06.56A10 10 0 006 14v17a1 1 0 001 1h18a1 1 0 001-1V14a10 10 0 00-5.56-8.94zM16 2a2.49 2.49 0 012.48 2.32 9.77 9.77 0 00-5 0A2.49 2.49 0 0116 2zm-2.83 9.79l2.12-2.12a1 1 0 011.42 0l2.12 2.12a1 1 0 010 1.42l-2.12 2.12a1 1 0 01-1.42 0l-2.12-2.12a1 1 0 010-1.42zM23 28a1 1 0 01-1 1H10a1 1 0 01-1-1v-7a1 1 0 011-1h1v3a1 1 0 001 1h1a1 1 0 001-1v-3h8a1 1 0 011 1z" />
</svg>