<svg xmlns="http://www.w3.org/2000/svg" viewBox="0 0 32 32" width="32" height="32">
	<path d="M27.2 4.59a25.45 25.45 0 00-2.65 9.91h7.37a15.88 15.88 0 00-4.72-9.91zm-2.38-1.94A16 16 0 0017.5.08V14.5h4.05a28.5 28.5 0 013.27-11.85zM.08 17.5a15.88 15.88 0 004.72 9.91 25.45 25.45 0 002.65-9.91zm24.47 0a25.45 25.45 0 002.65 9.91 15.88 15.88 0 004.72-9.91zm-17.1-3A25.45 25.45 0 004.8 4.59 15.88 15.88 0 00.08 14.5zm14.1 3H17.5v14.42a16 16 0 007.32-2.57 28.5 28.5 0 01-3.27-11.85zm-7.05-3V.08a16 16 0 00-7.32 2.57 28.5 28.5 0 013.27 11.85zm0 3h-4.05a28.5 28.5 0 01-3.27 11.85 16 16 0 007.32 2.57z" />
</svg>