<svg xmlns="http://www.w3.org/2000/svg" viewBox="0 0 32 32" width="32" height="32">
	<path d="M6.38 8.1l7.85 3.25-3.39 8.17a1 1 0 00.55 1.31l.92.38a1 1 0 00.38.08 1.09 1.09 0 00.39-.08 1 1 0 00.54-.54L17 12.5l7.85 3.25a1.09 1.09 0 00.39.08 1 1 0 00.92-.62A11 11 0 005.83 6.79a1 1 0 00.55 1.31zM16 3a8 8 0 017.92 9.12L9.6 6.19A8 8 0 0116 3zm13 26h-.5a4.08 4.08 0 01-3.13-1.58A6.81 6.81 0 0015 27.4a4.08 4.08 0 01-3.17 1.6 4.08 4.08 0 01-3.13-1.6A7 7 0 003.86 25a.45.45 0 00-.11 0H3a1 1 0 00-1 1v1a1 1 0 001 1h.5c1.48 0 2.17.67 3.13 1.59a6.83 6.83 0 0010.41 0 3.87 3.87 0 016.25 0A7.06 7.06 0 0028.14 32H29a1 1 0 001-1v-1a1 1 0 00-1-1z"/>
	<path d="M29 23h-.5a4.08 4.08 0 01-3.13-1.58A6.81 6.81 0 0015 21.4a4.08 4.08 0 01-3.17 1.6 4.08 4.08 0 01-3.13-1.6A7 7 0 003.86 19a.45.45 0 00-.11 0H3a1 1 0 00-1 1v1a1 1 0 001 1h.5c1.48 0 2.17.67 3.13 1.59a6.83 6.83 0 0010.41 0 3.87 3.87 0 016.25 0A7.06 7.06 0 0028.14 26H29a1 1 0 001-1v-1a1 1 0 00-1-1z"/>
</svg>