<svg xmlns="http://www.w3.org/2000/svg" viewBox="0 0 32 32" width="32" height="32">
	<path d="M29 25h-.5a4.08 4.08 0 01-3.13-1.58 6.81 6.81 0 00-10.41 0A4.08 4.08 0 0111.83 25a4.08 4.08 0 01-3.13-1.58A7 7 0 003.86 21H3a1 1 0 00-1 1v1a1 1 0 001 1h.5a4.08 4.08 0 013.13 1.58 6.81 6.81 0 0010.41 0 3.88 3.88 0 016.25 0A7 7 0 0028.14 28H29a1 1 0 001-1v-1a1 1 0 00-1-1zm0-8.5h-.5a4.08 4.08 0 01-3.13-1.58 6.81 6.81 0 00-10.41 0 4.08 4.08 0 01-3.13 1.58 4.08 4.08 0 01-3.13-1.58 7 7 0 00-4.84-2.4H3a1 1 0 00-1 1v1a1 1 0 001 1h.5a4.08 4.08 0 013.13 1.58 6.81 6.81 0 0010.41 0 3.88 3.88 0 016.25 0 7 7 0 004.85 2.4H29a1 1 0 001-1v-1a1 1 0 00-1-1zM29 8h-.5a4.08 4.08 0 01-3.13-1.58 6.81 6.81 0 00-10.37 0A4.08 4.08 0 0111.83 8 4.08 4.08 0 018.7 6.42 7 7 0 003.86 4H3a1 1 0 00-1 1v1a1 1 0 001 1h.5a4.08 4.08 0 013.13 1.58 6.89 6.89 0 005.2 2.42A6.93 6.93 0 0017 8.58a3.88 3.88 0 016.25 0A7 7 0 0028.14 11H29a1 1 0 001-1V9a1 1 0 00-1-1z"/>
</svg>