<svg xmlns="http://www.w3.org/2000/svg" viewBox="0 0 32 32" width="32" height="32">
	<path d="M13.28 15.08A4.21 4.21 0 0015 13.66a3.72 3.72 0 00.59-2.17 4.66 4.66 0 00-.39-2 3.26 3.26 0 00-1.12-1.31 4.87 4.87 0 00-1.74-.71 10.47 10.47 0 00-2.25-.22H2v17.2h8.35a8.9 8.9 0 002.25-.29 6 6 0 002-.89 4.47 4.47 0 001.36-1.56 4.86 4.86 0 00.5-2.26 4.7 4.7 0 00-.78-2.76 4.09 4.09 0 00-2.4-1.61zm-7.49-4.92h3.55a4.38 4.38 0 011 .09 2.21 2.21 0 01.84.3 1.52 1.52 0 01.58.6 1.94 1.94 0 01.22 1 1.82 1.82 0 01-.65 1.56 2.71 2.71 0 01-1.67.49H5.79zm6.62 10.2a1.75 1.75 0 01-.61.68 2.59 2.59 0 01-.9.37 5.14 5.14 0 01-1.06.11h-4v-4.75h4.07a3.19 3.19 0 012 .57 2.23 2.23 0 01.75 1.9 2.33 2.33 0 01-.25 1.12zm13.42 1.33a3 3 0 01-1.79.52 3 3 0 01-2.21-.75A3.46 3.46 0 0121 19h9a9.13 9.13 0 00-.24-2.78 6.83 6.83 0 00-1.1-2.36 5.39 5.39 0 00-1.94-1.66 6 6 0 00-2.77-.61 6.59 6.59 0 00-2.6.5A6.07 6.07 0 0018 15.61a7.46 7.46 0 00-.46 2.61 7.54 7.54 0 00.46 2.66A6.13 6.13 0 0019.25 23a5.67 5.67 0 002 1.34 7.24 7.24 0 002.66.47 6.45 6.45 0 003.61-1 5.67 5.67 0 002.22-3.22h-3a2.21 2.21 0 01-.91 1.1zm-4.69-5.63a2.26 2.26 0 01.46-.88 2.84 2.84 0 01.86-.69 3.06 3.06 0 011.37-.28 2.54 2.54 0 011.93.7 3.31 3.31 0 01.79 2H21a4.06 4.06 0 01.14-.85zm-.86-7.68h6.98v1.7h-6.98z" />
</svg>