<svg xmlns="http://www.w3.org/2000/svg" viewBox="0 0 32 32" width="32" height="32">
	<path d="M11.65 16.55H8.71v3.39h2.89a3.11 3.11 0 00.76-.08 1.66 1.66 0 00.64-.26 1.31 1.31 0 00.44-.49 1.67 1.67 0 00.16-.8 1.6 1.6 0 00-.53-1.31 2.3 2.3 0 00-1.42-.45zm.99-2.19a1.3 1.3 0 00.46-1.12 1.49 1.49 0 00-.15-.71 1.1 1.1 0 00-.41-.42 1.66 1.66 0 00-.6-.22 4 4 0 00-.7-.06H8.71v2.87h2.74a2 2 0 001.19-.34zm8.95.36a2.12 2.12 0 00-1 .2 2 2 0 00-.62.49 1.74 1.74 0 00-.33.63 3 3 0 00-.11.59h4a2.32 2.32 0 00-.53-1.41 1.83 1.83 0 00-1.41-.5z"/>
	<path d="M29 2H3a1 1 0 00-1 1v26a1 1 0 001 1h26a1 1 0 001-1V3a1 1 0 00-1-1zm-9.94 8.56h5v1.21h-5zm-3.12 9.52a3.25 3.25 0 01-1 1.11 4.37 4.37 0 01-1.4.64A6.18 6.18 0 0112 22H6V9.73h5.8a7.17 7.17 0 011.6.16 3.36 3.36 0 011.25.51 2.3 2.3 0 01.8.94 3.24 3.24 0 01.28 1.44 2.7 2.7 0 01-.42 1.55 3 3 0 01-1.26 1 2.92 2.92 0 011.69 1.15 3.36 3.36 0 01.56 2 3.43 3.43 0 01-.36 1.6zm4.22-.18a2.47 2.47 0 002.86.16 1.55 1.55 0 00.66-.79h2.15a4.07 4.07 0 01-1.59 2.3 4.57 4.57 0 01-2.58.7 5.22 5.22 0 01-1.9-.34 4.23 4.23 0 01-1.44-1 4.42 4.42 0 01-.9-1.48 5.53 5.53 0 01-.32-1.9 5.22 5.22 0 01.33-1.87 4.27 4.27 0 012.38-2.48 4.59 4.59 0 011.85-.36 4.13 4.13 0 012 .44A3.8 3.8 0 0125 14.5a4.85 4.85 0 01.78 1.69 6.18 6.18 0 01.17 2h-6.39a2.48 2.48 0 00.6 1.71z"/>
</svg>