<svg xmlns="http://www.w3.org/2000/svg" viewBox="0 0 32 32" width="32" height="32">
	<path d="M30 26h-1a5.84 5.84 0 00-4.27 1.9A2.91 2.91 0 0122.5 29a3 3 0 01-2.24-1.1 5.74 5.74 0 00-8.53 0A3 3 0 019.49 29a3 3 0 01-2.23-1.1A5.79 5.79 0 003 26H2a1 1 0 00-1 1v1a1 1 0 001 1h1a2.91 2.91 0 012.23 1.1 5.74 5.74 0 008.53 0 2.82 2.82 0 014.47 0 5.75 5.75 0 008.54 0A2.91 2.91 0 0129 29h1a1 1 0 001-1v-1a1 1 0 00-1-1z"/>
	<path d="M30 21h-1a6.19 6.19 0 00-1 .09V14a1 1 0 00-.66-.94L24 11.85V5a1 1 0 00-1-1h-2V2a1 1 0 00-1-1h-8a1 1 0 00-1 1v2H9a1 1 0 00-1 1v6.85l-3.34 1.21A1 1 0 004 14v7.09A6.19 6.19 0 003 21H2a1 1 0 00-1 1v1a1 1 0 001 1h1a2.91 2.91 0 012.23 1.1 5.74 5.74 0 008.53 0 2.82 2.82 0 014.47 0 5.75 5.75 0 008.54 0A2.91 2.91 0 0129 24h1a1 1 0 001-1v-1a1 1 0 00-1-1zm-18.5-3a1.5 1.5 0 111.5-1.5 1.5 1.5 0 01-1.5 1.5zm4.84-8.94a1 1 0 00-.68 0L11 10.75V7h10v3.75zM20.5 18a1.5 1.5 0 111.5-1.5 1.5 1.5 0 01-1.5 1.5z"/>
</svg>