<svg xmlns="http://www.w3.org/2000/svg" viewBox="0 0 32 32" width="32" height="32">
	<path d="M28 26v-1a1 1 0 00-.38-.78 1 1 0 00-.84-.2L16 26.47 5.22 24a1 1 0 00-.84.2A1 1 0 004 25v1a1 1 0 00.78 1l4.51 1-4.51 1A1 1 0 004 30v1a1 1 0 001 1h.22L16 29.53 26.78 32H27a1 1 0 001-1v-1a1 1 0 00-.78-1l-4.51-1 4.51-1a1 1 0 00.78-1z"/>
	<path d="M12.5 24.86a.9.9 0 00.5.14 1 1 0 00.73-.31 1 1 0 00.1-1.24c-2.68-4-.21-7.55 1.11-9 1.18 1.51 3.47 5.14 2.11 9.22a1 1 0 001.46 1.18C29.19 18.46 24 7.66 23.89 7.55A1 1 0 0022 8a5.09 5.09 0 01-1.29 2.91C21.21 4.3 15.65.23 15.58.19a1 1 0 00-1-.11 1 1 0 00-.59.8 24.58 24.58 0 01-2.29 7.8 24.51 24.51 0 00-1.81-5.13A1 1 0 008 4a17.4 17.4 0 01-1.29 5.58c-1.61 4.64-3.43 9.91 5.79 15.28z"/>
</svg>