<svg xmlns="http://www.w3.org/2000/svg" viewBox="0 0 32 32" width="32" height="32">
	<rect height="7" rx="1" width="26" x="3" y="23"/>
	<path d="M30.91 15.79l-.7-.7a1 1 0 00-1.42 0l-.35.35-.35.35L27 16.88l-1.94-1.94a1.49 1.49 0 00-2.12 0L21 16.88l-1.94-1.94a1.49 1.49 0 00-2.12 0L15 16.88l-1.94-1.94a1.49 1.49 0 00-2.12 0L9 16.88l-1.94-1.94a1.49 1.49 0 00-2.12 0l-2.15 2.15-.35.35-.35.35a1 1 0 000 1.42l.7.7a1 1 0 001.42 0l.35-.35.35-.35L6 18.12l1.94 1.94a1.49 1.49 0 002.12 0L12 18.12l1.94 1.94a1.49 1.49 0 002.12 0L18 18.12l1.94 1.94a1.49 1.49 0 002.12 0L24 18.12l1.94 1.94a1.5 1.5 0 002.12 0l2.15-2.15.35-.35.35-.35a1 1 0 000-1.42zM23 2H9a6 6 0 00-6 6v3a1 1 0 001 1h24a1 1 0 001-1V8a6 6 0 00-6-6zM7.5 7A1.5 1.5 0 119 5.5 1.5 1.5 0 017.5 7zm3 3A1.5 1.5 0 1112 8.5a1.5 1.5 0 01-1.5 1.5zm3-3A1.5 1.5 0 1115 5.5 1.5 1.5 0 0113.5 7z"/>
</svg>