<svg xmlns="http://www.w3.org/2000/svg" viewBox="0 0 32 32" width="32" height="32">
	<path d="M31.48 23.52l-6.36-6.36a11 11 0 10-18.24 0L.52 23.52a1 1 0 00-.25 1 1 1 0 00.76.69l4.8 1 1 4.8a1 1 0 00.69.76 1 1 0 00.29 0 1 1 0 00.71-.29L16 24l7.52 7.52a1 1 0 00.71.29 1 1 0 00.29 0 1 1 0 00.69-.76l1-4.8 4.8-1a1 1 0 00.76-.69 1 1 0 00-.29-1.04zM9 26.71l-.36-1.78-.26-1.31-1.31-.26L5.29 23l3.61-3.61a11 11 0 005 2.41zm-.7-13.55v-.18a6.41 6.41 0 01-.16-.76v-.24A7.93 7.93 0 018 11a7.38 7.38 0 010-.82 8 8 0 011.37-3.65c.14-.21.3-.42.46-.62a8 8 0 0112.34 0c.16.2.32.41.46.62A8 8 0 0124 10.18a7.38 7.38 0 010 .82 7.93 7.93 0 01-.07 1v.24a6.41 6.41 0 01-.16.76v.18a8 8 0 01-15.4 0zm16.63 10.2l-1.31.26-.26 1.31-.36 1.78-4.92-4.91a11 11 0 005-2.41L26.71 23z"/>
</svg>