<svg xmlns="http://www.w3.org/2000/svg" viewBox="0 0 32 32" width="32" height="32">
	<path d="M27.75 10.84L25.6 8.38l.3-3.26a1 1 0 00-.78-1.06l-3.19-.72L20.26.53A1 1 0 0019 .12l-3 1.29-3-1.29a1 1 0 00-1.26.41l-1.67 2.81-3.19.72a1 1 0 00-.78 1.06l.3 3.26-2.15 2.46a1 1 0 000 1.32l2.15 2.46-.3 3.26a1 1 0 00.78 1.06l1.85.42V30.5a1 1 0 00.51.87 1 1 0 001 0L16 27.83l5.47 3.51a1 1 0 00.54.16 1 1 0 001-1V19.42l2.12-.48a1 1 0 00.78-1.06l-.3-3.26 2.15-2.46a1 1 0 00-.01-1.32zM23.06 13l-.57.65.08.85.18 1.94-1.9.43L20 17l-.44.74-1 1.67-1.79-.77-.77-.32-.79.34-1.79.77-1-1.67L12 17l-.84-.19-1.9-.43.18-1.94.08-.85-.58-.59-1.28-1.5L8.94 10l.57-.65-.08-.85-.18-1.9 1.9-.43L12 6l.44-.74 1-1.67 1.79.77.79.34.79-.34 1.79-.77 1 1.67.4.74.84.19 1.9.43-.18 1.94-.08.85.57.65 1.28 1.46zm-6 12L16 24.29 15 25l-3.22 2v-4.54a1 1 0 001.26.41l3-1.29 3 1.29a1 1 0 00.4.08.93.93 0 00.6-.21v4.09z"/>
</svg>