<svg xmlns="http://www.w3.org/2000/svg" viewBox="0 0 32 32" width="32" height="32">
	<rect height="3" rx="1" width="11" x="5" y="5"/>
	<rect height="3" rx="1" width="4" x="5" y="10"/>
	<path d="M5 21H3V3h15v2a1 1 0 001 1h1a1 1 0 001-1V1a1 1 0 00-1-1H1a1 1 0 00-1 1v22a1 1 0 001 1h4a1 1 0 001-1v-1a1 1 0 00-1-1z"/>
	<path d="M20 8a12 12 0 1012 12A12 12 0 0020 8zm0 21a9 9 0 119-9 9 9 0 01-9 9z"/>
	<path d="M21.5 20.38V14a1 1 0 00-1-1h-1a1 1 0 00-1 1v7.1a1 1 0 00.27.81l3.15 3.15a1 1 0 001.41 0l.71-.71a1 1 0 000-1.41z"/>
</svg>