<svg xmlns="http://www.w3.org/2000/svg" viewBox="0 0 9.77 16"><path class="cls-1" d="M9.74,4.09,8.66.74a.79.79,0,0,0-1-.5.77.77,0,0,0-.5,1L8,3.71l-1.62.23a23.74,23.74,0,0,1-3.07-.39L3,3.46A6.69,6.69,0,0,1,1.6,2.83c-.16-.22.17-.92.34-1.29q.12-.25.21-.48a.77.77,0,0,0-.45-1A.79.79,0,0,0,.69.5C.65.6.59.74.52.88c-.34.73-.91,2-.14,2.93A4.79,4.79,0,0,0,2.5,4.93L2.76,5V9.36L.85,12.14a.8.8,0,0,0,.13,1l3,2.64a.78.78,0,0,0,.52.19.76.76,0,0,0,.58-.27A.77.77,0,0,0,5,14.63L2.54,12.45l1.58-2.31H5.38l2.47.77L8,13.08a.79.79,0,0,0,.78.74h0A.78.78,0,0,0,9.51,13l-.12-2.69a.76.76,0,0,0-.55-.71L6.48,8.85V5.55L9.12,5.1a.77.77,0,0,0,.54-.37A.76.76,0,0,0,9.74,4.09Z"/><circle class="cls-1" cx="5.01" cy="1.9" r="1.4"/></svg>