<svg xmlns="http://www.w3.org/2000/svg" viewBox="0 0 32 32" width="32" height="32">
	<path d="M21.86 14.21l-3.74-.55-1.67-3.38a.52.52 0 00-.9 0l-1.67 3.38-3.74.55a.5.5 0 00-.4.34.49.49 0 00.13.51l2.7 2.63-.64 3.73a.5.5 0 00.2.48.49.49 0 00.53 0L16 20.19l3.34 1.75a.49.49 0 00.23.06.47.47 0 00.3-.1.5.5 0 00.2-.48l-.64-3.73 2.7-2.63a.49.49 0 00.13-.51.5.5 0 00-.4-.34z"/>
	<path d="M31.2 12.08a1 1 0 00.8-1V6a1 1 0 00-1-1H1a1 1 0 00-1 1v5.1a1 1 0 00.8 1A4 4 0 014 16a4 4 0 01-3.2 3.92 1 1 0 00-.8 1V26a1 1 0 001 1h30a1 1 0 001-1v-5.1a1 1 0 00-.8-1 4 4 0 010-7.84zM25 16a7 7 0 004 6.32V24H3v-1.68A7 7 0 007 16a7 7 0 00-4-6.32V8h26v1.68A7 7 0 0025 16z"/>
</svg>