<svg xmlns="http://www.w3.org/2000/svg" viewBox="0 0 32 32" width="32" height="32">
	<path d="M31.2 12.08a1 1 0 00.8-1V6a1 1 0 00-1-1H1a1 1 0 00-1 1v5.1a1 1 0 00.8 1A4 4 0 014 16a4 4 0 01-3.2 3.92 1 1 0 00-.8 1V26a1 1 0 001 1h30a1 1 0 001-1v-5.1a1 1 0 00-.8-1 4 4 0 010-7.84zm-9.07 2l-2.7 2.63.64 3.73a.5.5 0 01-.2.48.47.47 0 01-.3.1.49.49 0 01-.23-.06L16 19.19l-3.34 1.75a.49.49 0 01-.53 0 .5.5 0 01-.2-.48l.64-3.73-2.7-2.63a.49.49 0 01-.13-.51.5.5 0 01.4-.34l3.74-.55 1.67-3.38a.52.52 0 01.9 0l1.67 3.38 3.74.55a.5.5 0 01.4.34.49.49 0 01-.13.47z"/>
</svg>