<svg xmlns="http://www.w3.org/2000/svg" viewBox="0 0 32 32" width="32" height="32">
	<path d="M31 0H12a1 1 0 00-1 1v19a1 1 0 001 1h19a1 1 0 001-1V1a1 1 0 00-1-1zM14 18V3h15v15z"/>
	<path d="M20 23h-1a1 1 0 00-1 1v5H3V14h5a1 1 0 001-1v-1a1 1 0 00-1-1H1a1 1 0 00-1 1v19a1 1 0 001 1h19a1 1 0 001-1v-7a1 1 0 00-1-1z"/>
	<circle cx="18" cy="7" r="2"/>
	<circle cx="18" cy="14" r="2"/>
	<circle cx="14" cy="25" r="2"/>
	<circle cx="7" cy="18" r="2"/>
	<circle cx="25" cy="14" r="2"/>
	<circle cx="25" cy="7" r="2"/>
</svg>