<svg xmlns="http://www.w3.org/2000/svg" viewBox="0 0 32 32" width="32" height="32">
	<path d="M31.1 16c0-1.54-1.91-2.75-2.36-4.14s.35-3.54-.52-4.74-3.14-1.08-4.35-2-1.76-3.06-3.2-3.53a2 2 0 00-.59-.09c-1.27.04-2.75 1.1-4.08 1.1s-2.81-1.06-4.08-1.06a2 2 0 00-.59.09c-1.44.47-2 2.66-3.2 3.53s-3.47.75-4.35 2-.06 3.3-.52 4.74S.9 14.46.9 16s1.91 2.75 2.36 4.14-.35 3.54.52 4.74 3.14 1.08 4.35 2 1.76 3.06 3.2 3.53a2 2 0 00.59.09c1.27 0 2.75-1.07 4.08-1.07s2.81 1.07 4.08 1.07a2 2 0 00.59-.09c1.44-.47 2-2.66 3.2-3.53s3.47-.75 4.35-2 .06-3.3.52-4.74 2.36-2.6 2.36-4.14zM12 10a2 2 0 11-2 2 2 2 0 012-2zm.42 11.7a1 1 0 01-.71.3 1 1 0 01-.71-.3l-.7-.7a1 1 0 010-1.42l9.28-9.28a1 1 0 011.42 0l.7.7a1 1 0 010 1.42zM20 22a2 2 0 112-2 2 2 0 01-2 2z"/>
</svg>