<svg xmlns="http://www.w3.org/2000/svg" viewBox="0 0 32 32" width="32" height="32">
	<path d="M31.1 16c0-1.54-1.91-2.75-2.36-4.14s.35-3.54-.52-4.74-3.14-1.08-4.35-2-1.76-3.06-3.2-3.53a2 2 0 00-.59-.09c-1.27.04-2.75 1.1-4.08 1.1s-2.81-1.06-4.08-1.06a2 2 0 00-.59.09c-1.44.47-2 2.66-3.2 3.53s-3.47.75-4.35 2-.06 3.3-.52 4.74S.9 14.46.9 16s1.91 2.75 2.36 4.14-.35 3.54.52 4.74 3.14 1.08 4.35 2 1.76 3.06 3.2 3.53a2 2 0 00.59.09c1.27 0 2.75-1.07 4.08-1.07s2.81 1.07 4.08 1.07a2 2 0 00.59-.09c1.44-.47 2-2.66 3.2-3.53s3.47-.75 4.35-2 .06-3.3.52-4.74 2.36-2.6 2.36-4.14zm-3.58.54a8.3 8.3 0 00-1.63 2.67 8.62 8.62 0 00-.27 3.19v.61l-.59.17a8.53 8.53 0 00-2.94 1.23 8.61 8.61 0 00-2.06 2.4c-.1.16-.23.36-.35.52l-.55-.2a8.69 8.69 0 00-3.13-.74 8.69 8.69 0 00-3.15.74l-.55.21c-.12-.17-.25-.37-.35-.53a8.61 8.61 0 00-2.06-2.4A8.53 8.53 0 007 23.18L6.35 23v-.61a8.62 8.62 0 00-.27-3.19 8.3 8.3 0 00-1.63-2.67l-.4-.53.43-.54a8.3 8.3 0 001.63-2.67 8.62 8.62 0 00.27-3.19v-.61L7 8.82a8.53 8.53 0 002.89-1.23A8.61 8.61 0 0012 5.19c.1-.16.23-.36.35-.52l.55.2a8.69 8.69 0 003.1.73 8.69 8.69 0 003.15-.73l.55-.21c.12.17.25.37.35.53a8.61 8.61 0 002.06 2.4 8.53 8.53 0 002.94 1.23l.6.17v.61a8.62 8.62 0 00.27 3.19 8.3 8.3 0 001.63 2.67L28 16z"/>
	<circle cx="11.75" cy="12.25" r="2"/>
	<circle cx="19.75" cy="20.25" r="2"/>
	<path d="M21.45 11.25l-.7-.7a1 1 0 00-1.42 0l-9.28 9.28a1 1 0 000 1.42l.7.7a1 1 0 00.71.3 1 1 0 00.71-.3l9.28-9.28a1 1 0 000-1.42z"/>
</svg>