<svg xmlns="http://www.w3.org/2000/svg" viewBox="0 0 32 32" width="32" height="32">
	<path d="M22 22.59a1 1 0 00-1.41 0l-3.09 3.08V13a1 1 0 00-1-1h-1a1 1 0 00-1 1v12.67l-3.09-3.08a1 1 0 00-1.41 0l-.71.7a1 1 0 000 1.42l5.3 5.29.7.71a1 1 0 001.42 0l.7-.71 5.3-5.29a1 1 0 000-1.42z"/>
	<path d="M27.26 8.55a8.49 8.49 0 00-15.71-3.44A6.6 6.6 0 003.3 8.92 5.22 5.22 0 005.22 19h5.28a1 1 0 001-1v-1a1 1 0 00-1-1H5.22a2.23 2.23 0 01-.6-4.37l1-.29.32-1a3.62 3.62 0 013.5-2.58 3.57 3.57 0 011.65.41l1.86 1 .87-1.91a5.49 5.49 0 0110.49 2.21v2.35l2.24-.26h.25a2.24 2.24 0 010 4.47h-5.3a1 1 0 00-1 1v1a1 1 0 001 1h5.28a5.24 5.24 0 00.48-10.45z"/>
</svg>