<svg xmlns="http://www.w3.org/2000/svg" viewBox="0 0 32 32" width="32" height="32">
	<path d="M22 7a9.83 9.83 0 00-1.85.2l-8-4a1.5 1.5 0 00-2.11 1.75l1.66 5.83a17.79 17.79 0 00-3.1 2.39L2.29 9.23a1.48 1.48 0 00-1.52 0A1.51 1.51 0 000 10.5v11a1.51 1.51 0 00.77 1.31 1.48 1.48 0 001.52 0l6.31-3.98a17.79 17.79 0 003.12 2.43l-1.66 5.83a1.47 1.47 0 00.48 1.56 1.51 1.51 0 001 .35 1.44 1.44 0 00.67-.16l8-4A9.83 9.83 0 0022 25c5 0 10-5.5 10-9s-5-9-10-9zm-8.12.37l2.22 1.11c-.57.23-1.13.48-1.69.76zM3 18.79v-5.58l4 2.51v.56zm10.88 5.84l.53-1.87c.56.28 1.12.53 1.69.76zM22 22c-3.72 0-10.75-4.07-11.91-6 1.16-1.93 8.19-6 11.91-6 3.34 0 7 4.21 7 6s-3.66 6-7 6z"/>
	<circle cx="25" cy="16" r="1.5"/>
</svg>