<svg xmlns="http://www.w3.org/2000/svg" viewBox="0 0 32 32" width="32" height="32">
	<path d="M30 2C27.17-.83 16 0 8.22 8.22 0 17-.83 27.17 2 30s13 2 21.78-6.22C32 16 32.83 4.83 30 2zM14.59 22.36l-.71.71a1 1 0 01-.71.29 1 1 0 01-.71-.29l-3.53-3.53a1 1 0 010-1.42l.71-.71a1 1 0 011.41 0L14.59 21a1 1 0 010 1.36zm4.24-4.24l-.71.71a1 1 0 01-1.41 0l-3.54-3.54a1 1 0 010-1.41l.71-.71a1 1 0 011.41 0l3.54 3.54a1 1 0 010 1.41zm4.24-4.24l-.71.71a1 1 0 01-.7.29 1 1 0 01-.71-.29l-3.54-3.54a1 1 0 010-1.41l.71-.71a1 1 0 011.42 0l3.53 3.53a1 1 0 010 1.42z"/>
</svg>