<svg xmlns="http://www.w3.org/2000/svg" viewBox="0 0 32 32" width="32" height="32">
	<path d="M30 2c-.94-.94-2.8-1.48-5.16-1.48a23.87 23.87 0 00-16.62 7.7C0 17-.83 27.17 2 30c.94.94 2.67 1.47 4.9 1.47 4.51 0 11-2.19 16.88-7.69C32 16 32.83 4.83 30 2zm-8.27 19.59c-5.42 5.07-11.21 6.88-14.83 6.88a4.76 4.76 0 01-2.78-.59c-1-1-1.55-9.24 6.29-17.61a21 21 0 0114.43-6.75 5.51 5.51 0 013 .6c1.23 1.3 1.34 10.49-6.11 17.47z"/>
	<path d="M18.83 9.64a1 1 0 00-1.42 0l-.7.7a1 1 0 000 1.42l3.53 3.53a1 1 0 001.42 0l.7-.7a1 1 0 000-1.42zm-3.54 3.53a1 1 0 00-1.41 0l-.71.71a1 1 0 000 1.41l3.54 3.54a1 1 0 001.41 0l.71-.71a1 1 0 000-1.41zm-3.53 3.54a1 1 0 00-1.42 0l-.7.7a1 1 0 000 1.42l3.53 3.53a1 1 0 00.71.3 1 1 0 00.71-.3l.7-.7a1 1 0 000-1.42z"/>
</svg>