<svg xmlns="http://www.w3.org/2000/svg" viewBox="0 0 32 32" width="32" height="32">
	<path d="M31.76 15.36l-3.06-3.49.43-4.61a1 1 0 00-.76-1l-4.52-1-2.37-4a1 1 0 00-1.22-.4L16 2.65 11.74.81a1 1 0 00-1.22.4l-2.37 4-4.52 1a1 1 0 00-.76 1l.43 4.61-3.06 3.54a1 1 0 000 1.28l3.06 3.49-.43 4.61a1 1 0 00.76 1l4.52 1 2.37 4a1 1 0 001.22.4L16 29.35l4.26 1.84a1 1 0 00.38.08 1 1 0 00.84-.48l2.37-4 4.52-1a1 1 0 00.76-1l-.43-4.61 3.06-3.49a1 1 0 000-1.33zm-5.53 3.15l-.56.63.08.84.31 3.33-3.27.69-.81.19-.43.72-1.71 2.87-3.07-1.28-.77-.33-.77.33-3.07 1.32L10.45 25l-.45-.77-.79-.23-3.27-.73.31-3.27.08-.84-.56-.63L3.57 16l2.2-2.51.56-.63-.08-.86-.31-3.31L9.21 8l.79-.23.43-.72 1.71-2.87 3.09 1.32.77.33.77-.33 3.07-1.32 1.71 2.87.43.72.81.19 3.27.73-.31 3.31-.08.84.56.63 2.2 2.53z"/>
	<path d="M22.94 11.53a1 1 0 00-1.41 0l-6.65 6.64-3-3a1 1 0 00-1.41 0l-.71.7a1 1 0 000 1.42l3.7 3.71.71.71a1 1 0 00.71.29 1 1 0 00.71-.29l.7-.71 7.36-7.35a1 1 0 000-1.42z"/>
</svg>