<svg xmlns="http://www.w3.org/2000/svg" viewBox="0 0 32 32" width="32" height="32">
	<path d="M31.76 15.36l-3.06-3.49.43-4.61a1 1 0 00-.76-1l-4.52-1-2.37-4a1 1 0 00-1.22-.4L16 2.65 11.74.81a1 1 0 00-1.22.4l-2.37 4-4.52 1a1 1 0 00-.76 1l.43 4.61-3.06 3.54a1 1 0 000 1.28l3.06 3.49-.43 4.61a1 1 0 00.76 1l4.52 1 2.37 4a1 1 0 001.22.4L16 29.35l4.26 1.84a1 1 0 00.38.08 1 1 0 00.84-.48l2.37-4 4.52-1a1 1 0 00.76-1l-.43-4.61 3.06-3.49a1 1 0 000-1.33zm-8.11-1.71L16.29 21l-.7.71a1 1 0 01-.71.29 1 1 0 01-.71-.29l-.71-.71-3.73-3.73a1 1 0 010-1.42l.71-.7a1 1 0 011.41 0l3 3 6.65-6.64a1 1 0 011.41 0l.71.7a1 1 0 01.03 1.44z"/>
</svg>