<svg xmlns="http://www.w3.org/2000/svg" viewBox="0 0 32 32" width="32" height="32">
	<path d="M16 0a16 16 0 1016 16A16 16 0 0016 0zm0 29a13 13 0 1113-13 13 13 0 01-13 13z"/>
	<path d="M21 10a4.51 4.51 0 00-4.5 4.5 1 1 0 001 1h1a1 1 0 001-1 1.5 1.5 0 013 0 1 1 0 001 1h1a1 1 0 001-1A4.51 4.51 0 0021 10zm1.5 7.5h-1a1 1 0 00-1 1 4.5 4.5 0 01-9 0 1 1 0 00-1-1h-1a1 1 0 00-1 1 7.5 7.5 0 0015 0 1 1 0 00-1-1zm-13-3a1.5 1.5 0 013 0 1 1 0 001 1h1a1 1 0 001-1 4.5 4.5 0 00-9 0 1 1 0 001 1h1a1 1 0 001-1z"/>
</svg>