<svg xmlns="http://www.w3.org/2000/svg" viewBox="0 0 32 32" width="32" height="32">
	<path d="M29 2H3a1 1 0 00-1 1v26a1 1 0 001 1h26a1 1 0 001-1V3a1 1 0 00-1-1zm-3.06 18.12a7.59 7.59 0 01-.46 2.43 4.85 4.85 0 01-1.16 1.77 4.7 4.7 0 01-1.77 1.15 7.3 7.3 0 01-2.43.47c-1.06 0-1.4.06-4.12.06s-3.06 0-4.12-.06a7.3 7.3 0 01-2.43-.47 4.7 4.7 0 01-1.77-1.15 4.85 4.85 0 01-1.16-1.77 7.59 7.59 0 01-.46-2.43C6 19.06 6 18.72 6 16s0-3.06.06-4.12a7.59 7.59 0 01.46-2.43 5.19 5.19 0 012.93-2.93 7.59 7.59 0 012.43-.46C12.94 6 13.28 6 16 6s3.06 0 4.12.06a7.59 7.59 0 012.43.46 5.19 5.19 0 012.93 2.93 7.59 7.59 0 01.46 2.43c0 1.06.06 1.4.06 4.12s0 3.06-.06 4.12z"/>
	<path d="M16 12.67A3.33 3.33 0 1019.33 16 3.33 3.33 0 0016 12.67z"/>
	<path d="M23.8 10.1a3.33 3.33 0 00-1.9-1.9 5.61 5.61 0 00-1.9-.34c-1-.05-1.33-.06-4-.06s-3 0-4 .06a5.61 5.61 0 00-1.86.34 3.33 3.33 0 00-1.9 1.9 5.61 5.61 0 00-.38 1.9c-.05 1-.06 1.37-.06 4s0 3 .06 4a5.61 5.61 0 00.34 1.9 3.33 3.33 0 001.9 1.9 5.61 5.61 0 001.86.34c1 .05 1.37.06 4 .06s3 0 4-.06a5.61 5.61 0 001.86-.34 3.33 3.33 0 001.9-1.9 5.61 5.61 0 00.42-1.9c.05-1.05.06-1.37.06-4s0-3-.06-4a5.61 5.61 0 00-.34-1.9zm-7.8 11a5.14 5.14 0 115.14-5.1A5.14 5.14 0 0116 21.14zm5.34-9.28a1.2 1.2 0 111.2-1.2 1.2 1.2 0 01-1.2 1.24z"/>
</svg>