<svg xmlns="http://www.w3.org/2000/svg" viewBox="0 0 32 32" width="32" height="32">
	<circle cx="16" cy="16" r="4.67"/>
	<path d="M29.92 10.23a10.5 10.5 0 00-.65-3.4 7.21 7.21 0 00-4.1-4.1 10.5 10.5 0 00-3.4-.65C20.28 2 19.8 2 16 2s-4.28 0-5.77.08a10.5 10.5 0 00-3.4.65 7.21 7.21 0 00-4.1 4.1 10.5 10.5 0 00-.65 3.4C2 11.72 2 12.2 2 16s0 4.28.08 5.77a10.5 10.5 0 00.65 3.4 7.21 7.21 0 004.1 4.1 10.5 10.5 0 003.4.65c1.49.06 2 .08 5.77.08s4.28 0 5.77-.08a10.5 10.5 0 003.4-.65 7.21 7.21 0 004.1-4.1 10.5 10.5 0 00.65-3.4C30 20.28 30 19.8 30 16s0-4.28-.08-5.77zM16 23.19A7.19 7.19 0 1123.19 16 7.19 7.19 0 0116 23.19zm7.47-13a1.68 1.68 0 111.68-1.68 1.69 1.69 0 01-1.68 1.7z"/>
</svg>