<svg xmlns="http://www.w3.org/2000/svg" viewBox="0 0 32 32" width="32" height="32">
	<path d="M29.92 10.23a10.5 10.5 0 00-.65-3.4 7.21 7.21 0 00-4.1-4.1 10.5 10.5 0 00-3.4-.65C20.28 2 19.8 2 16 2s-4.28 0-5.77.08a10.5 10.5 0 00-3.4.65 7.21 7.21 0 00-4.1 4.1 10.5 10.5 0 00-.65 3.4C2 11.72 2 12.2 2 16s0 4.28.08 5.77a10.5 10.5 0 00.65 3.4 7.21 7.21 0 004.1 4.1 10.5 10.5 0 003.4.65c1.49.06 2 .08 5.77.08s4.28 0 5.77-.08a10.5 10.5 0 003.4-.65 7.21 7.21 0 004.1-4.1 10.5 10.5 0 00.65-3.4C30 20.28 30 19.8 30 16s0-4.28-.08-5.77zM27.4 21.66a7.75 7.75 0 01-.49 2.6 4.56 4.56 0 01-2.65 2.65 7.75 7.75 0 01-2.6.49c-1.48.06-1.92.08-5.66.08s-4.18 0-5.66-.08a7.75 7.75 0 01-2.6-.49 4.56 4.56 0 01-2.65-2.65 7.75 7.75 0 01-.49-2.6c-.06-1.48-.08-1.92-.08-5.66s0-4.18.08-5.66a7.75 7.75 0 01.49-2.6 4.56 4.56 0 012.65-2.65 7.75 7.75 0 012.6-.49c1.48-.06 1.92-.08 5.66-.08s4.18 0 5.66.08a7.75 7.75 0 012.6.49 4.56 4.56 0 012.65 2.65 7.75 7.75 0 01.49 2.6c.06 1.48.08 1.92.08 5.66s-.02 4.18-.08 5.66z"/>
	<path d="M16 8.81A7.19 7.19 0 1023.19 16 7.19 7.19 0 0016 8.81zm0 11.86A4.67 4.67 0 1120.67 16 4.67 4.67 0 0116 20.67zm7.47-13.82a1.68 1.68 0 101.68 1.68 1.68 1.68 0 00-1.68-1.68z"/>
</svg>