<svg xmlns="http://www.w3.org/2000/svg" viewBox="0 0 32 32" width="32" height="32">
	<path d="M29 6.74a1 1 0 00-.73-.41 1 1 0 00-.79.29L23.17 11a1 1 0 00-.17 1.14 7.95 7.95 0 010 7.72 1 1 0 00.17 1.19l4.34 4.33a1 1 0 00.7.3h.09a1 1 0 00.73-.41A15.92 15.92 0 0029 6.74zm-7.95 16.43a1 1 0 00-1.19-.17 8.07 8.07 0 01-7.72 0 1 1 0 00-1.19.17l-4.33 4.34a1 1 0 00-.29.79 1 1 0 00.41.73 15.92 15.92 0 0018.52 0 1 1 0 00.41-.73 1 1 0 00-.29-.79zM11 8.83a1 1 0 001.14.17 8.07 8.07 0 017.72 0 1 1 0 00.48.12 1 1 0 00.71-.29l4.33-4.34a1 1 0 00.29-.79 1 1 0 00-.41-.7A15.92 15.92 0 006.74 3a1 1 0 00-.41.73 1 1 0 00.29.79zM9 19.86a7.95 7.95 0 010-7.72A1 1 0 008.83 11L4.49 6.62a.93.93 0 00-.79-.29 1 1 0 00-.7.41 15.92 15.92 0 000 18.52 1 1 0 00.73.41h.09a1 1 0 00.7-.3l4.34-4.33A1 1 0 009 19.86z" />
</svg>