<svg xmlns="http://www.w3.org/2000/svg" viewBox="0 0 32 32" width="32" height="32">
	<path d="M20.5 10h-1a1 1 0 00-.89.55L16 15.76l-2.61-5.21a1 1 0 00-.89-.55h-1a1 1 0 00-1 1v10a1 1 0 001 1h1a1 1 0 001-1v-4.3l1.64 2.8a1 1 0 001.72 0l1.64-2.8V21a1 1 0 001 1h1a1 1 0 001-1V11a1 1 0 00-1-1z"/>
	<path d="M31.2 12.08a1 1 0 00.8-1V6a1 1 0 00-1-1H1a1 1 0 00-1 1v5.1a1 1 0 00.8 1A4 4 0 014 16a4 4 0 01-3.2 3.92 1 1 0 00-.8 1V26a1 1 0 001 1h30a1 1 0 001-1v-5.1a1 1 0 00-.8-1 4 4 0 010-7.84zM25 16a7 7 0 004 6.32V24H3v-1.68A7 7 0 007 16a7 7 0 00-4-6.32V8h26v1.68A7 7 0 0025 16z"/>
</svg>