<svg xmlns="http://www.w3.org/2000/svg" viewBox="0 0 32 32" width="32" height="32">
	<path d="M23.42 18.6l-.7-.71a1 1 0 00-1.42 0l-.7.71a6.52 6.52 0 01-9.2 0l-.7-.71a1 1 0 00-1.42 0l-.7.71a1 1 0 000 1.41l.7.71a9.42 9.42 0 005.22 2.65V27h-3a1 1 0 00-1 1v1a1 1 0 001 1h9a1 1 0 001-1v-1a1 1 0 00-1-1h-3v-3.63a9.42 9.42 0 005.22-2.65l.7-.71a1 1 0 000-1.41zM16 2a5 5 0 00-5 5v2.05l6.73-6.72A5 5 0 0016 2z"/>
	<path d="M16 18a5 5 0 005-5V9l-8 8a4.94 4.94 0 003 1zm-6.35-1.94a1 1 0 00.7.29 1 1 0 00.71-.29l.71-.71 9.15-9.15 1.64-1.64a1 1 0 000-1.41l-.71-.71a1 1 0 00-1.41 0l-1 1L11 11.88l-2.06 2.06a1 1 0 000 1.41z"/>
</svg>