<svg xmlns="http://www.w3.org/2000/svg" viewBox="0 0 32 32" width="32" height="32">
	<path d="M16 1a15 15 0 00-5.47 29 14.19 14.19 0 01.05-4.31c.27-1.18 1.75-7.47 1.75-7.47A5.5 5.5 0 0111.9 16c0-2.09 1.21-3.65 2.72-3.65a1.89 1.89 0 011.9 2.12c0 1.28-.82 3.21-1.25 5a2.18 2.18 0 002.23 2.72c2.66 0 4.71-2.82 4.71-6.87a5.92 5.92 0 00-6.27-6.1 6.5 6.5 0 00-6.79 6.51 5.84 5.84 0 001.12 3.42.47.47 0 01.1.43c-.12.47-.37 1.5-.42 1.71s-.23.33-.51.2c-1.88-.88-3-3.61-3-5.82 0-4.74 3.43-9.09 9.92-9.09 5.2 0 9.25 3.71 9.25 8.68 0 5.18-3.26 9.34-7.78 9.34a4 4 0 01-3.44-1.73l-.93 3.57a16.49 16.49 0 01-1.87 3.94 15.16 15.16 0 004.45.67A15 15 0 0016 1z" />
</svg>