<svg xmlns="http://www.w3.org/2000/svg" viewBox="0 0 32 32" width="32" height="32">
	<path d="M11.61 27.56a15.72 15.72 0 001.84-3.9c.19-.69.93-3.53.93-3.53a4 4 0 003.41 1.71c4.47 0 7.71-4.12 7.71-9.25 0-4.92-4-8.59-9.17-8.59C9.91 4 6.5 8.31 6.5 13c0 2.19 1.17 4.9 3 5.77.28.13.44.07.5-.2s.3-1.22.41-1.69a.44.44 0 00-.09-.43 5.78 5.78 0 01-1.1-3.39A6.43 6.43 0 0116 6.61a5.87 5.87 0 016.22 6c0 4-2 6.8-4.67 6.8a2.17 2.17 0 01-2.21-2.69c.43-1.77 1.24-3.68 1.24-5a1.87 1.87 0 00-1.89-2.1c-1.49 0-2.69 1.55-2.69 3.61a5.48 5.48 0 00.44 2.21s-1.47 6.22-1.73 7.39a14.64 14.64 0 00-.05 4.27c.08.84.43 1.28.95.46z" />
</svg>