<svg xmlns="http://www.w3.org/2000/svg" viewBox="0 0 32 32" width="32" height="32">
	<path d="M29 2H3a1 1 0 00-1 1v26a1 1 0 001 1h26a1 1 0 001-1V3a1 1 0 00-1-1zM17.44 20.72a3.18 3.18 0 01-2.74-1.39l-.76 2.86a13.38 13.38 0 01-1.48 3.15c-.43.66-.71.3-.81-.3a11.8 11.8 0 010-3.45l1.4-6a4.43 4.43 0 01-.35-1.78c0-1.67 1-2.92 2.17-2.92a1.51 1.51 0 011.52 1.69 24.39 24.39 0 01-1 4 1.74 1.74 0 001.78 2.17c2.13 0 3.77-2.25 3.77-5.49a4.74 4.74 0 00-5-4.89 5.2 5.2 0 00-5.43 5.21 4.71 4.71 0 00.89 2.74.35.35 0 01.08.34l-.33 1.37c0 .22-.18.27-.41.16-1.5-.71-2.44-2.89-2.44-4.66 0-3.78 2.75-7.26 7.94-7.26 4.16 0 7.4 3 7.4 6.94.03 4.18-2.58 7.51-6.2 7.51z" />
</svg>