<svg xmlns="http://www.w3.org/2000/svg" viewBox="0 0 32 32" width="32" height="32">
	<path d="M31.76 15.31l-3.06-3.48.43-4.62a1 1 0 00-.76-1l-4.52-1-2.37-4a1 1 0 00-1.22-.44L16 2.6 11.74.77a1 1 0 00-1.22.39l-2.37 4-4.52 1a1 1 0 00-.76 1l.43 4.62-3.06 3.53a1 1 0 000 1.29l3.06 3.48-.43 4.62a1 1 0 00.76 1l4.52 1 2.37 4a1 1 0 001.22.4L16 29.31l4.26 1.83a.84.84 0 00.38.08 1 1 0 00.84-.48l2.37-4 4.52-1a1 1 0 00.76-1l-.43-4.62 3.06-3.48a1 1 0 000-1.33zm-5.53 3.16l-.56.63.08.83.31 3.33-3.27.74-.81.18-.43.72-1.71 2.88-3.07-1.32-.77-.34-.77.34-3.07 1.32-1.71-2.88-.45-.72-.79-.18-3.27-.74.31-3.33.08-.83-.56-.63L3.57 16l2.2-2.51.56-.63-.08-.86-.31-3.35 3.27-.74.79-.18.45-.73 1.71-2.88 3.07 1.32.77.34.77-.34 3.07-1.32L21.55 7l.43.72.81.18 3.27.74-.31 3.36-.08.83.56.63 2.2 2.54z"/>
	<path d="M16 7.46A5.5 5.5 0 0010.5 13a1 1 0 001 1h1a1 1 0 001-1 2.5 2.5 0 112.5 2.5h-1a1 1 0 00-1 1V19a1 1 0 001 1h1a1 1 0 001-1v-.64a5.5 5.5 0 00-1-10.9z"/>
	<rect height="3" rx="1" width="3" x="14" y="20.96"/>
</svg>