<svg xmlns="http://www.w3.org/2000/svg" viewBox="0 0 32 32" width="32" height="32">
	<path d="M31.76 15.31l-3.06-3.48.43-4.62a1 1 0 00-.76-1l-4.52-1-2.37-4a1 1 0 00-1.22-.44L16 2.6 11.74.77a1 1 0 00-1.22.39l-2.37 4-4.52 1a1 1 0 00-.76 1l.43 4.62-3.06 3.53a1 1 0 000 1.29l3.06 3.48-.43 4.62a1 1 0 00.76 1l4.52 1 2.37 4a1 1 0 001.22.4L16 29.31l4.26 1.83a.84.84 0 00.38.08 1 1 0 00.84-.48l2.37-4 4.52-1a1 1 0 00.76-1l-.43-4.62 3.06-3.48a1 1 0 000-1.33zM17 24a1 1 0 01-1 1h-1a1 1 0 01-1-1v-1a1 1 0 011-1h1a1 1 0 011 1zm0-5.6v.6a1 1 0 01-1 1h-1a1 1 0 01-1-1v-2.5a1 1 0 011-1h1a2.5 2.5 0 10-2.5-2.5 1 1 0 01-1 1h-1a1 1 0 01-1-1 5.5 5.5 0 116.5 5.4z"/>
</svg>