<svg xmlns="http://www.w3.org/2000/svg" viewBox="0 0 32 32" width="32" height="32">
	<path d="M27 16.91a8.31 8.31 0 000-1.82l3.31-2.72a1 1 0 00.23-1.27l-3-5.2a1 1 0 00-1.22-.43l-4 1.5a10.78 10.78 0 00-1.58-.91L20 1.84A1 1 0 0019 1h-6a1 1 0 00-1 .84l-.7 4.22A10.78 10.78 0 009.73 7l-4-1.5a1 1 0 00-1.22.43l-3 5.2a1 1 0 00.23 1.27l3.31 2.72a8.31 8.31 0 000 1.82l-3.31 2.69a1 1 0 00-.23 1.27l3 5.2a1 1 0 00.87.5.91.91 0 00.35-.07l4-1.5a10.78 10.78 0 001.58.91l.7 4.22A1 1 0 0013 31h6a1 1 0 001-.84l.7-4.22a10.78 10.78 0 001.57-.94l4 1.5a.91.91 0 00.35.07 1 1 0 00.87-.5l3-5.2a1 1 0 00-.23-1.27zM21 16a5 5 0 11-5-5 5 5 0 015 5z" />
</svg>