<svg xmlns="http://www.w3.org/2000/svg" viewBox="0 0 32 32" width="32" height="32">
	<path d="M8.51 12.47A14.66 14.66 0 0016 22.72a14.66 14.66 0 007.49-10.25A49.34 49.34 0 0116 9.64a49.34 49.34 0 01-7.49 2.83z"/>
	<path d="M31.18 6.11c-.1 0-10.12-1.88-14.56-5.42a1 1 0 00-1.24 0C10.94 4.23.92 6.09.82 6.11a1 1 0 00-.82 1C0 19 5.1 27 15.61 31.45a1 1 0 00.78 0C26.9 27 32 19 32 7.09a1 1 0 00-.82-.98zM16.46 25.89a1 1 0 01-.92 0A18.06 18.06 0 015.25 11.16a1 1 0 01.75-1.1 47.09 47.09 0 009.54-3.55 1 1 0 01.94 0A47.09 47.09 0 0026 10.06a1 1 0 01.74 1.1 18.06 18.06 0 01-10.28 14.73z"/>
</svg>