<svg xmlns="http://www.w3.org/2000/svg" viewBox="0 0 32 32" width="32" height="32">
	<path d="M31.18 6.11c-.1 0-10.12-1.88-14.56-5.42a1 1 0 00-1.24 0C10.94 4.23.92 6.09.82 6.11a1 1 0 00-.82 1C0 19 5.1 27 15.61 31.45a1 1 0 00.78 0C26.9 27 32 19 32 7.09a1 1 0 00-.82-.98zM3 8.71c3-.65 9-2.22 13-4.79 4 2.57 10.06 4.15 13 4.8-.25 6.42-2.26 14.69-13 19.62C10.43 25.81 3.59 21 3 8.71z"/>
	<path d="M26 10.06a47.09 47.09 0 01-9.54-3.55 1 1 0 00-.94 0A47.09 47.09 0 016 10.06a1 1 0 00-.74 1.1 18.06 18.06 0 0010.28 14.73 1 1 0 00.92 0 18.06 18.06 0 0010.29-14.73 1 1 0 00-.75-1.1zm-10-.42a49.34 49.34 0 007.49 2.83A14.66 14.66 0 0116 22.72a14.66 14.66 0 01-7.49-10.25A49.34 49.34 0 0016 9.64z"/>
</svg>