<svg xmlns="http://www.w3.org/2000/svg" viewBox="0 0 32 32" width="32" height="32">
	<path d="M31.18 6.11c-.1 0-10.12-1.87-14.56-5.42a1 1 0 00-1.24 0C10.94 4.24.92 6.09.82 6.11a1 1 0 00-.82 1C0 19 5.1 27 15.61 31.45a1 1 0 00.78 0C26.9 27 32 19 32 7.09a1 1 0 00-.82-.98zM3 8.71c3-.65 9-2.22 13-4.79 4 2.57 10.06 4.15 13 4.8-.25 6.42-2.26 14.69-13 19.62C10.43 25.81 3.59 21 3 8.71z"/>
	<path d="M21 14.5h-3.5V11a1 1 0 00-1-1h-1a1 1 0 00-1 1v3.5H11a1 1 0 00-1 1v1a1 1 0 001 1h3.5V21a1 1 0 001 1h1a1 1 0 001-1v-3.5H21a1 1 0 001-1v-1a1 1 0 00-1-1z"/>
</svg>