<svg xmlns="http://www.w3.org/2000/svg" viewBox="0 0 32 32" width="32" height="32">
	<path d="M31 14.5a1 1 0 001-1v-1a1 1 0 00-1-1 4.49 4.49 0 00-4.22 3h-.28V11a1.49 1.49 0 00-.77-1.31l-3.3-1.83.25-.43a4.45 4.45 0 00.81.08 4.64 4.64 0 001.17-.15 4.46 4.46 0 002.72-2.08A1 1 0 0027 3.89l-.86-.5a1 1 0 00-1.37.37 1.49 1.49 0 01-.91.7 1.51 1.51 0 01-1.14-.15 1.49 1.49 0 01-.7-.91 1.51 1.51 0 01.15-1.14 1 1 0 00.13-.5 1 1 0 00-.5-.87l-.8-.5a1 1 0 00-1.4.37 4.45 4.45 0 00-.45 3.4 4.5 4.5 0 00.94 1.75l-.28.48-3.08-1.7a1.51 1.51 0 00-1.46 0L12.19 6.4l-.28-.48a4.5 4.5 0 00.94-1.75 4.45 4.45 0 00-.45-3.4A1 1 0 0011 .39l-.86.5a1 1 0 00-.5.87 1 1 0 00.13.5A1.51 1.51 0 0110 3.4a1.49 1.49 0 01-.7.91 1.51 1.51 0 01-1.14.15 1.49 1.49 0 01-.91-.7 1 1 0 00-1.37-.37l-.88.5a1 1 0 00-.4 1.37 4.46 4.46 0 002.74 2.1 4.64 4.64 0 001.17.15 4.45 4.45 0 00.81-.08l.25.43-3.3 1.83A1.49 1.49 0 005.5 11v3.5h-.28a4.49 4.49 0 00-4.22-3 1 1 0 00-1 1v1a1 1 0 001 1 1.5 1.5 0 010 3 1 1 0 00-1 1v1a1 1 0 001 1 4.49 4.49 0 004.22-3h.28V21a1.49 1.49 0 00.77 1.31l3.3 1.83-.26.44a4.43 4.43 0 00-4.7 2.15A1 1 0 005 28.11l.86.5a1 1 0 00.5.13 1 1 0 00.87-.5 1.49 1.49 0 01.91-.7 1.51 1.51 0 011.14.15 1.49 1.49 0 01.7.91 1.51 1.51 0 01-.15 1.14 1 1 0 00-.13.5 1 1 0 00.5.87l.86.5a1 1 0 001.37-.37 4.45 4.45 0 00.45-3.4 4.5 4.5 0 00-.94-1.75l.28-.48 3.08 1.71a1.5 1.5 0 001.46 0l3.08-1.71.28.48a4.5 4.5 0 00-.94 1.75 4.45 4.45 0 00.45 3.4 1 1 0 001.37.37l.86-.5a1 1 0 00.5-.87 1 1 0 00-.13-.5 1.51 1.51 0 01-.15-1.14 1.49 1.49 0 01.7-.91 1.51 1.51 0 011.14-.15 1.49 1.49 0 01.91.7 1 1 0 00.87.5 1 1 0 00.5-.13l.86-.5a1 1 0 00.37-1.37 4.43 4.43 0 00-4.7-2.15l-.26-.44 3.3-1.83A1.49 1.49 0 0026.5 21v-3.5h.28a4.49 4.49 0 004.22 3 1 1 0 001-1v-1a1 1 0 00-1-1 1.5 1.5 0 010-3zm-7.5-2.62v2.62h-4.9l2.33-4zM16 7.72L18.31 9 16 13l-2.31-4zm-7.5 4.16l2.57-1.42 2.33 4H8.5zm0 8.24V17.5h4.9l-2.33 4zm7.5 4.16L13.69 23 16 19l2.31 4zm7.5-4.16l-2.57 1.42-2.33-4h4.9z"/>
</svg>