<svg xmlns="http://www.w3.org/2000/svg" viewBox="0 0 15.99 16"><path class="cls-1" d="M6.36,4.93a.27.27,0,0,0-.22.12L4.46,7.9a.28.28,0,0,0,0,.25L6.09,11a.29.29,0,0,0,.22.13l3.27,0A.26.26,0,0,0,9.79,11l1.64-2.83a.28.28,0,0,0,0-.25L9.82,5.05a.27.27,0,0,0-.22-.12Z"/><path class="cls-1" d="M9.65,4a.27.27,0,0,0,.21-.12L11.5,1a.13.13,0,0,0-.05-.19A7.46,7.46,0,0,0,8,0a7.78,7.78,0,0,0-3.5.73.16.16,0,0,0,0,.2l1.71,2.9A.28.28,0,0,0,6.33,4Z"/><path class="cls-1" d="M6.26,12.05a.28.28,0,0,0-.21.12L4.41,15.05a.14.14,0,0,0,0,.19A7.46,7.46,0,0,0,8,16a7.78,7.78,0,0,0,3.5-.73.15.15,0,0,0,.05-.2l-1.71-2.9a.27.27,0,0,0-.21-.12Z"/><path class="cls-1" d="M5.4,4.55a.28.28,0,0,0,0-.25L3.79,1.41a.15.15,0,0,0-.19,0A7.51,7.51,0,0,0,1.16,4,7.87,7.87,0,0,0,0,7.38a.14.14,0,0,0,.14.14l3.35,0a.27.27,0,0,0,.21-.13Z"/><path class="cls-1" d="M12.5,8.47a.26.26,0,0,0-.21.12l-1.7,2.87a.31.31,0,0,0,0,.25l1.62,2.88a.16.16,0,0,0,.2.06A7.66,7.66,0,0,0,14.83,12,7.87,7.87,0,0,0,16,8.63a.15.15,0,0,0-.14-.15Z"/><path class="cls-1" d="M3.71,8.61a.28.28,0,0,0-.21-.13L.2,8.43a.14.14,0,0,0-.14.14,7.53,7.53,0,0,0,1,3.44,7.81,7.81,0,0,0,2.33,2.72.13.13,0,0,0,.19-.05l1.7-2.9a.31.31,0,0,0,0-.25Z"/><path class="cls-1" d="M12.25,7.49a.27.27,0,0,0,.21.13l3.3,0a.14.14,0,0,0,.14-.14,7.53,7.53,0,0,0-1-3.44,7.81,7.81,0,0,0-2.33-2.72.13.13,0,0,0-.19,0l-1.7,2.91a.29.29,0,0,0,0,.24Z"/></svg>