<svg xmlns="http://www.w3.org/2000/svg" viewBox="0 0 32 32" width="32" height="32">
	<rect x="14.5" width="3" height="5" rx="1" ry="1"/>
	<path d="M7.71 8.75A1 1 0 007.92 8a1 1 0 00-.37-.67L5.21 5.47a1.08 1.08 0 00-.74-.21 1.05 1.05 0 00-.67.37l-.62.79a1 1 0 00.16 1.4l2.34 1.87a1 1 0 001.41-.16zM5.16 18A1 1 0 004 17.21l-3 .67a1 1 0 00-.62.44 1 1 0 00-.13.75l.22 1a1 1 0 001 .78h.22l2.92-.67a1 1 0 00.76-1.19zm6.52 8.13l-.9-.44a1 1 0 00-1.34.47l-1.3 2.7a1 1 0 00.47 1.34l.9.43a1 1 0 00.43.1 1 1 0 00.9-.56l1.31-2.71a1 1 0 00-.47-1.33zm10.88.03a1 1 0 00-1.34-.47l-.9.44a1 1 0 00-.46 1.33l1.3 2.71a1 1 0 00.9.56.94.94 0 00.43-.1l.9-.43a1 1 0 00.47-1.34zm9.02-7.84a1 1 0 00-.62-.45L28 17.21a1 1 0 00-1.19.75l-.23 1a1 1 0 00.76 1.2l2.92.67a.86.86 0 00.22 0 1 1 0 001-.77l.22-1a1 1 0 00-.12-.74zM29 7.15a1 1 0 00-.21-.74l-.62-.78a1 1 0 00-.67-.37 1 1 0 00-.74.21l-2.31 1.87a1 1 0 00-.16 1.41l.62.78a1 1 0 001.41.16l2.34-1.87a1 1 0 00.34-.67z"/>
	<circle cx="16" cy="16" r="9"/>
</svg>