<svg xmlns="http://www.w3.org/2000/svg" viewBox="0 0 32 32" width="32" height="32">
	<path d="M27.45 3.11l-4-2A1 1 0 0023 1H9a1 1 0 00-.45.11l-4 2A1 1 0 004 4v20a1 1 0 001 1h3.13l-3 4.45a1 1 0 000 1A1 1 0 006 31h1a1 1 0 00.83-.45L11.54 25h8.92l3.71 5.55A1 1 0 0025 31h1a1 1 0 00.88-.53 1 1 0 00-.05-1l-3-4.45H27a1 1 0 001-1V4a1 1 0 00-.55-.89zM8.5 22a1.5 1.5 0 111.5-1.5A1.5 1.5 0 018.5 22zM8 16a1 1 0 01-1-1V8a1 1 0 011-1h6.5v9zm15.5 6a1.5 1.5 0 111.5-1.5 1.5 1.5 0 01-1.5 1.5zm1.5-7a1 1 0 01-1 1h-6.5V7H24a1 1 0 011 1z"/>
</svg>