<svg xmlns="http://www.w3.org/2000/svg" viewBox="0 0 32 32" width="32" height="32">
	<path d="M30 7.32a11.76 11.76 0 01-3.3.9A5.76 5.76 0 0029.23 5a11.53 11.53 0 01-3.65 1.4 5.74 5.74 0 00-9.94 3.93 5.66 5.66 0 00.15 1.31A16.3 16.3 0 014 5.67a5.74 5.74 0 001.78 7.67 5.56 5.56 0 01-2.6-.72.22.22 0 000 .08 5.75 5.75 0 004.61 5.63 5.79 5.79 0 01-1.51.2 5.49 5.49 0 01-1.08-.1 5.76 5.76 0 005.37 4 11.56 11.56 0 01-7.14 2.46A12.44 12.44 0 012 24.8a16.25 16.25 0 008.81 2.58c10.56 0 16.34-8.76 16.34-16.35v-.74A11.58 11.58 0 0030 7.32z" />
</svg>