<svg xmlns="http://www.w3.org/2000/svg" viewBox="0 0 32 32" width="32" height="32">
	<path d="M29 2H3a1 1 0 00-1 1v26a1 1 0 001 1h26a1 1 0 001-1V3a1 1 0 00-1-1zm-4.25 9.51v.59A12.83 12.83 0 015 22.91a9.51 9.51 0 001.08.09 9 9 0 005.6-2 4.5 4.5 0 01-4.21-3.13 4.48 4.48 0 002-.08 4.52 4.52 0 01-3.62-4.42v-.06a4.45 4.45 0 002.05.56 4.51 4.51 0 01-2-3.75 4.45 4.45 0 01.61-2.27 12.82 12.82 0 009.3 4.71 4.93 4.93 0 01-.11-1 4.51 4.51 0 017.81-3.08 9.18 9.18 0 002.86-1.1 4.52 4.52 0 01-2 2.5 9 9 0 002.63-.7 9.06 9.06 0 01-2.25 2.33z" />
</svg>