<svg xmlns="http://www.w3.org/2000/svg" viewBox="0 0 32 32" width="32" height="32">
	<path d="M31.93 14.66a16 16 0 00-31.86 0A1 1 0 000 15v2a1 1 0 001 1h1a1 1 0 001-1v-.5c0-1.08 1.37-2 3-2s3 .92 3 2v.5a1 1 0 001 1h1a1 1 0 001-1c0-1 1.06-1.91 2.5-2.3v12.05a1.25 1.25 0 01-2.5 0V26a1 1 0 00-1-1h-1a1 1 0 00-1 1v1a1 1 0 00.05.25 4.23 4.23 0 008.44-.4V14.7C18.94 15.09 20 16 20 17a1 1 0 001 1h1a1 1 0 001-1v-.5c0-1.08 1.37-2 3-2s3 .92 3 2v.5a1 1 0 001 1h1a1 1 0 001-1v-2a1 1 0 00-.07-.34zm-10.62-1.27A7.87 7.87 0 0016 11.5a7.87 7.87 0 00-5.31 1.89A6.48 6.48 0 006 11.5a7 7 0 00-2.32.39 13 13 0 0124.64 0A7 7 0 0026 11.5a6.48 6.48 0 00-4.69 1.89z"/>
</svg>