<svg xmlns="http://www.w3.org/2000/svg" viewBox="0 0 16 16"><path class="cls-1" d="M.27,6.82a7.2,7.2,0,0,0,3,1.31c.12,0,.37-.14.37-.26A8.81,8.81,0,0,1,7.41.32.18.18,0,0,0,7.28,0C3.79.1.92,3,.11,6.35A.71.71,0,0,0,.27,6.82Z"/><path class="cls-1" d="M9.73,11.26a.38.38,0,0,0,.18-.5A11.46,11.46,0,0,0,8.19,8.55a.69.69,0,0,0-.67-.05,8.12,8.12,0,0,1-7.1-.85C.14,7.49,0,7.69,0,8a14.87,14.87,0,0,0,.23,2.17,1.2,1.2,0,0,0,.3.57A7.59,7.59,0,0,0,9.73,11.26Z"/><path class="cls-1" d="M9.85,12c-2.11,1.25-4.75,2-8.42.13-.2-.1-.38,0-.27.16a8.1,8.1,0,0,0,9.12,3.48c.43-.1.54-.63.54-.79a10,10,0,0,0-.37-2.86C10.38,11.85,10.13,11.78,9.85,12Z"/><path class="cls-1" d="M4.27,7.73c0,.46.16.57.45.57A6.56,6.56,0,0,0,7.3,7.89a.94.94,0,0,0,.47-.68,8.2,8.2,0,0,1,4.37-5.77c.08,0,.07-.25,0-.3A7.45,7.45,0,0,0,9.7.08,1.46,1.46,0,0,0,8.39.27C6.35,1.66,4.46,3.36,4.27,7.73Z"/><path class="cls-1" d="M13.42,2.09c-.18-.19-.36-.39-.76-.19a6.5,6.5,0,0,0-2.55,2c0,.07,0,.3.31.47a8,8,0,0,1,4.27,7.29c0,.27.26.24.35.07A7.93,7.93,0,0,0,13.42,2.09Z"/><path class="cls-1" d="M9.86,4.75c-.22-.12-.4,0-.56.24a8,8,0,0,0-1,2.48,1.14,1.14,0,0,0,.19.58,7.94,7.94,0,0,1,3,6.86c0,.12.16.26.25.21a8.27,8.27,0,0,0,2.14-1.65,2,2,0,0,0,.25-.62A8.11,8.11,0,0,0,9.86,4.75Z"/></svg>