<svg xmlns="http://www.w3.org/2000/svg" viewBox="0 0 32 32" width="32" height="32">
	<path d="M10.5 13a5.38 5.38 0 00.12 1.14l6.52-6.52A5.38 5.38 0 0016 7.5a5.51 5.51 0 00-5.5 5.5zm11 0a5.38 5.38 0 00-.12-1.14l-6.52 6.52a5.38 5.38 0 001.14.12 5.51 5.51 0 005.5-5.5z"/>
	<path d="M23.74 9.5A8.49 8.49 0 0112.5 20.74l-1.85 1.85a10.84 10.84 0 003.85 1.3V27H10a1 1 0 00-1 1v1a1 1 0 001 1h12a1 1 0 001-1v-1a1 1 0 00-1-1h-4.5v-3.11a11 11 0 008.1-16.25zm-15.48 7A8.49 8.49 0 0119.5 5.26l1.86-1.86a11 11 0 00-15 15zm18.8-13.85l-.71-.71a1 1 0 00-1.41 0l-20 20a1 1 0 000 1.41l.71.71a1 1 0 001.41 0l20-20a1 1 0 000-1.41z"/>
</svg>