<svg xmlns="http://www.w3.org/2000/svg" viewBox="0 0 32 32" width="32" height="32">
	<circle cx="16.04" cy="26.5" r="2.5"/>
	<path d="M16 17.5a8.47 8.47 0 00-6.7 3.28 1 1 0 000 1.19l.61.86a1 1 0 00.81.43 1 1 0 00.81-.42 5.47 5.47 0 018.92-.08.93.93 0 00.82.4 1 1 0 00.81-.42l.6-.86a1 1 0 000-1.21A8.49 8.49 0 0016 17.5zm14.09-7.74a21.38 21.38 0 00-28.18.08 1 1 0 00-.16 1.33l.57.82a1 1 0 00.7.42h.12a1 1 0 00.66-.25 18.39 18.39 0 0124.4-.08 1 1 0 00.78.24 1 1 0 00.7-.42l.57-.82a1 1 0 00-.16-1.32z"/>
	<path d="M16 11a14.91 14.91 0 00-10.38 4.23 1 1 0 00-.12 1.29l.58.83a1 1 0 00.72.42h.09a1 1 0 00.71-.29 12 12 0 0116.81-.08 1 1 0 00.79.28 1 1 0 00.72-.42l.58-.82a1 1 0 00-.13-1.3A14.89 14.89 0 0016 11z"/>
</svg>